<svg width="44" height="40" viewBox="0 0 44 40" fill="none" xmlns="http://www.w3.org/2000/svg">

<path d="M17.7685 25.92C17.7685 25.92 17.6891 25.92 17.5701 25.8411C17.4511 25.8016 17.2527 25.7227 16.975 25.6044C16.499 25.3677 15.7849 24.9732 14.9518 24.263C14.5551 23.9079 14.1187 23.474 13.722 22.8822C13.3253 22.3299 12.9286 21.6197 12.6905 20.7912C12.4128 19.9627 12.3335 18.9764 12.4525 17.9112C12.4921 17.6745 12.5715 17.3984 12.6112 17.1222L12.6508 16.9249V16.8855C12.6508 16.846 12.6509 16.9249 12.6905 16.7671L12.7302 16.6882L12.8492 16.3726C12.9285 16.1753 12.9682 15.9781 13.0873 15.7414C13.2063 15.5047 13.3253 15.2285 13.4046 14.9918C13.8807 14.0055 14.5154 13.0586 15.4278 12.1907C15.8642 11.7567 16.4196 11.4016 16.975 11.0466C17.5701 10.731 18.1652 10.4548 18.7999 10.297C19.4346 10.1392 20.1091 10.0208 20.7438 9.94191L21.2199 9.90247H21.4579H21.4976C21.5769 9.90247 21.4183 9.90247 21.6563 9.90247H21.7753C21.934 9.90247 22.0133 9.90246 22.291 9.94191L22.6481 9.98137L22.8068 10.0208L22.9257 10.0603C24.3936 10.4153 25.6631 11.0466 26.8532 11.954C28.0434 12.8614 29.0749 14.0844 29.7493 15.5836C30.1063 16.3332 30.3046 17.1222 30.4633 17.9112C30.5427 18.3058 30.5427 18.7397 30.5824 19.1342V19.2921V19.4893V19.7655V20.2784C30.5427 20.6729 30.5427 21.1068 30.503 21.5014C30.4633 21.8959 30.4237 22.2904 30.3443 22.6849C30.2253 23.474 29.9476 24.3025 29.6302 25.0915C29.2732 25.8806 28.8368 26.6696 28.2814 27.3797C27.726 28.0899 27.0119 28.7211 26.2978 29.2734C25.5441 29.8257 24.711 30.2203 23.8779 30.5753L23.2431 30.8121L23.1638 30.8515L23.0051 30.891L22.8464 30.9304L22.5687 31.0093L22.291 31.0882C22.172 31.1277 22.053 31.1277 21.934 31.1671L21.1802 31.2855C19.3156 31.4827 17.3717 31.246 15.5865 30.4964C13.8013 29.7863 12.1351 28.5633 10.9053 27.0247C10.3103 26.2356 9.75483 25.3677 9.39779 24.4208L9.23909 24.0658L9.15977 23.9079C9.15977 23.9474 9.12011 23.7501 9.12011 23.7501L9.0804 23.6712L8.88204 23.04C8.76303 22.6455 8.64405 22.0931 8.52504 21.5803C7.77128 17.5562 9.12007 13.2953 11.8574 10.1786C12.5715 9.42904 13.3253 8.67945 14.198 8.08767C14.3964 7.92986 14.6344 7.8115 14.8725 7.6537L15.0311 7.53534L15.1105 7.49589C15.1898 7.45644 15.1105 7.49589 15.2692 7.41698L15.5865 7.25918C15.9436 7.06192 16.5783 6.8252 17.0941 6.62794C19.1966 5.95726 21.3786 5.87835 23.4812 6.19397C24.5523 6.35177 25.5838 6.58849 26.6152 6.98301C27.6467 7.37753 28.6385 7.89041 29.5906 8.60054L29.9476 8.87671L30.265 9.15287L30.5427 9.38958L30.86 9.70521C31.0584 9.90247 31.2568 10.0997 31.4155 10.3364C31.6138 10.5337 31.7725 10.731 31.9312 10.9677C32.6056 11.8356 33.2007 12.743 33.7164 13.7293C34.1925 14.7156 34.5892 15.7414 34.8669 16.8066C35.1446 17.8718 35.2636 18.9764 35.3429 20.0811C35.3429 21.1858 35.3032 22.2904 35.0652 23.3951L34.9859 23.7896L34.9066 24.1841C34.8669 24.4208 34.7478 24.7364 34.6685 25.0126C34.5098 25.5649 34.3115 26.0778 34.0734 26.5907C33.161 28.6422 31.8518 30.4964 30.2253 32.0351C28.5988 33.5737 26.5755 34.7178 24.4729 35.4674L24.3936 35.5068C24.354 35.5068 24.2349 35.5463 24.2349 35.5463L24.0366 35.5857L23.6795 35.7041C23.4415 35.783 23.2034 35.8619 22.9257 35.9408C22.3703 36.0592 21.7753 36.217 21.2199 36.2959C20.1091 36.4932 18.9586 36.4931 17.8081 36.4537C15.5072 36.2959 13.2459 35.5463 11.3417 34.3233C10.3896 33.7315 9.47711 33.0214 8.68368 32.1929L8.08861 31.5616L8.00929 31.4827C7.89027 31.3644 7.92993 31.4038 7.89025 31.3644L7.77127 31.2066L7.53325 30.891C7.21588 30.457 6.8985 30.1414 6.58112 29.6285C6.26375 29.1551 5.94636 28.6816 5.66866 28.1688L4.91489 26.709C4.47851 25.6833 4.04215 24.697 3.80412 23.6318C3.44708 22.606 3.32804 21.5014 3.12968 20.4362C3.05033 19.3315 2.93134 18.2663 3.05035 17.1616C3.09003 14.9523 3.72477 12.7825 4.63721 10.8493C5.54966 8.91616 6.77947 7.10137 8.20764 5.56274C9.67549 3.98466 11.3814 2.68274 13.3253 1.73589C14.2774 1.26246 15.3088 0.867948 16.3403 0.631235L17.1337 0.433975L17.3321 0.394521C17.4908 0.355068 17.4114 0.394518 17.4908 0.355066H17.5701L17.9272 0.315612L19.395 0.118351L20.1091 0.0394545H20.9025C21.4182 0.0394545 21.9736 0.0394521 22.4894 0H22.8861L23.2828 0.0394545L24.0366 0.118351C24.5523 0.197255 25.068 0.197255 25.5441 0.315612C27.5673 0.710132 29.5112 1.38082 31.2964 2.36712C32.1692 2.91945 33.0023 3.43232 33.7561 4.06356C33.9544 4.22137 34.1528 4.37918 34.3512 4.53699L34.8669 5.0104C35.2239 5.32602 35.581 5.68109 35.8983 6.03616C37.2472 7.41698 38.4373 8.99506 39.3101 10.731C40.1829 12.4668 40.6986 14.3211 40.8969 16.1753C41.016 17.1222 41.0159 18.0296 40.9763 18.937V19.0948V19.2131V19.2921L40.9366 19.6077L40.8573 20.2389C40.8176 20.6729 40.7779 21.1068 40.7382 21.5014C40.6192 22.3693 40.4606 23.2373 40.3019 24.1052C40.1432 24.9732 39.9052 25.7622 39.7068 26.5907C38.7944 29.8652 37.5248 32.903 36.0173 35.6252C34.4701 38.3474 32.6453 40.7934 30.9394 43.0027C29.2732 45.2515 27.726 47.3819 26.4169 49.5123C25.7424 50.5381 25.1473 51.6033 24.5523 52.5896C23.9969 53.6153 23.4415 54.5622 23.0051 55.5485C22.7671 56.0219 22.529 56.4953 22.3307 56.9688C22.1323 57.4422 21.934 57.9156 21.7356 58.3496C21.6563 58.5468 21.5373 58.7836 21.4579 58.9808C21.3786 59.2175 21.2992 59.4542 21.2199 59.6515C21.0612 60.0855 20.9025 60.5195 20.7835 60.9534C19.752 64.3068 19.5933 67.1079 19.5933 69.0016C19.5933 69.4751 19.5934 69.909 19.633 70.2641C19.633 70.6192 19.6727 70.9348 19.7124 71.1715C19.752 71.6449 19.7917 71.8816 19.7917 71.8816L19.0776 72C19.0776 72 19.0379 71.7238 18.9586 71.2504C18.9189 71.0137 18.8793 70.6981 18.8793 70.3036C18.8396 69.9485 18.7999 69.5145 18.7999 69.0016C18.7602 67.0685 18.8396 64.149 19.8314 60.6378C19.9504 60.2038 20.1091 59.7699 20.2678 59.3359C20.3471 59.0992 20.4265 58.9019 20.4661 58.6652C20.5455 58.4285 20.6645 58.1918 20.7438 57.9551C20.9422 57.4816 21.1405 57.0082 21.3389 56.5348C21.5372 56.0614 21.7753 55.5879 22.0133 55.0751C22.4497 54.0888 23.0051 53.063 23.5605 52.0373C24.1556 51.0115 24.711 49.9463 25.3854 48.8811C26.6946 46.7112 28.2021 44.5019 29.8286 42.2137C31.4948 39.9255 33.2007 37.5978 34.6288 34.9545C36.0173 32.2718 37.2075 29.3523 38.0009 26.1962C38.1596 25.4071 38.3976 24.6181 38.5167 23.829C38.6357 23.04 38.7944 22.251 38.8737 21.383C38.9134 20.949 38.953 20.5151 38.9927 20.0811L39.0324 19.4499L39.0721 19.1342V19.0553C39.0721 19.0948 39.0721 19.0159 39.0721 19.0159V18.8581C39.0721 18.0296 39.072 17.2011 38.953 16.4121C38.5563 13.1375 36.8901 10.0208 34.3908 7.53534C34.0734 7.21973 33.7561 6.94356 33.4387 6.62794L32.923 6.15452L32.4072 5.76C31.7328 5.20767 30.9791 4.73424 30.2253 4.30027C28.6385 3.47178 26.9723 2.88 25.1871 2.56438C24.7507 2.48548 24.2746 2.48548 23.8382 2.40658L23.1638 2.32767L22.8068 2.28821H22.4894L21.1405 2.32767H20.4661L19.752 2.44602L18.2842 2.64328L17.9272 2.68273H17.8478C17.8478 2.68273 17.7288 2.68273 17.8081 2.68273L17.6495 2.72219L16.975 2.88C16.1023 3.11671 15.2691 3.43232 14.436 3.82684C11.183 5.44438 8.5647 8.44274 6.97784 11.8751C6.18441 13.5715 5.70833 15.3863 5.66866 17.2405C5.58932 18.1874 5.70835 19.1342 5.7877 20.0811C5.94638 21.0279 6.0654 21.9748 6.38277 22.8427C6.6208 23.7501 7.01751 24.6181 7.37455 25.5255L8.04895 26.7879C8.28698 27.1825 8.52502 27.5375 8.80272 27.9321C9.00107 28.2871 9.39781 28.7211 9.71518 29.1156L9.9532 29.4312L10.0722 29.589C10.0722 29.589 10.1515 29.7074 10.0722 29.589L10.1516 29.6679L10.6276 30.1808C11.302 30.8121 12.0161 31.4038 12.8095 31.8773C14.3567 32.8636 16.1419 33.4159 17.9668 33.4948C18.8793 33.5342 19.7917 33.4948 20.7042 33.337C21.1802 33.2975 21.5769 33.1397 22.0133 33.0608C22.2117 33.0214 22.4894 32.903 22.7274 32.8241L23.0844 32.7058L23.2828 32.6663C23.3621 32.6268 23.2828 32.6663 23.3225 32.6663L23.4018 32.6268C25.1474 31.9562 26.7739 31.0488 28.083 29.7863C29.4319 28.5633 30.503 27.0247 31.2171 25.3677C31.3758 24.9337 31.5344 24.5392 31.6931 24.1052C31.7328 23.9079 31.8122 23.7501 31.8518 23.474L31.9312 23.1583L31.9709 22.8033C32.1295 21.8959 32.1692 21.0279 32.1692 20.1205C32.1295 19.2132 32.0105 18.3452 31.7725 17.5167C31.5345 16.6488 31.2171 15.8597 30.8204 15.0707C30.4237 14.2816 29.9476 13.5321 29.3922 12.8614C29.2732 12.7036 29.1145 12.5063 28.9558 12.3485C28.7972 12.1907 28.6781 12.0329 28.5194 11.8751L28.3211 11.6384L28.0434 11.4016L27.8054 11.1649L27.5673 11.0071C26.3375 10.0603 24.5919 9.46849 22.9257 9.23178C21.2199 8.99507 19.4743 9.07397 17.9668 9.58684C17.6494 9.7052 17.3321 9.78411 16.8957 10.0603L16.5783 10.2181C16.6973 10.1392 16.5783 10.2181 16.5783 10.2181L16.499 10.2575L16.38 10.3364C16.2213 10.4548 16.0229 10.5337 15.8643 10.6521C15.1898 11.1255 14.5948 11.6778 14.079 12.2696C11.9368 14.7156 10.945 18.0296 11.5004 20.949C11.5797 21.3041 11.6194 21.6197 11.7781 22.0537L11.9764 22.6849L12.0161 22.7638C12.0161 22.8033 11.9764 22.6849 12.0161 22.7638L12.0558 22.8822L12.1748 23.1189C12.4525 23.7896 12.8492 24.3814 13.2856 24.9731C14.1981 26.0778 15.3485 26.9458 16.6577 27.4192C17.9668 27.9321 19.3553 28.0899 20.6645 27.9715L21.1009 27.8926C21.1802 27.8926 21.2199 27.8926 21.3389 27.8532L21.6166 27.7742L21.8943 27.6953L22.053 27.6559C22.053 27.6559 22.172 27.6164 22.053 27.6559L22.0927 27.6164L22.5687 27.4586C23.1638 27.2219 23.7589 26.9063 24.2746 26.5512C25.306 25.8411 26.0201 24.8548 26.4962 23.7501C26.6945 23.1978 26.8929 22.606 27.0119 22.0142C27.0913 21.6986 27.0912 21.383 27.1309 21.1068C27.1706 20.7912 27.1706 20.5151 27.1706 20.1994V19.6866V19.4104V19.3315C27.1706 19.3315 27.1706 19.2526 27.1706 19.3315V19.2131C27.131 18.937 27.1309 18.6608 27.0913 18.3847C26.9722 17.8718 26.8532 17.3589 26.6152 16.8855C26.1788 15.9386 25.5044 15.1496 24.711 14.5184C23.9175 13.8871 22.9654 13.4532 22.1323 13.2559L22.053 13.2164H22.0133C21.9737 13.2164 21.9736 13.2164 21.934 13.2164C21.934 13.177 21.7356 13.177 21.5769 13.177H21.4579C21.6563 13.177 21.4976 13.177 21.5372 13.177H21.4976H21.2992L20.9422 13.2164C20.4661 13.2559 20.0297 13.3348 19.5933 13.4532C17.9668 13.8871 16.975 15.0312 16.3403 16.3331C16.261 16.491 16.1816 16.6488 16.1419 16.8066C16.0626 16.9644 15.9833 17.2011 15.9436 17.3984L15.8245 17.714L15.7849 17.7929C15.8246 17.6745 15.7849 17.7929 15.7849 17.7534V17.7929L15.7452 17.9112C15.7056 18.069 15.7056 18.1874 15.6659 18.3058C15.6262 18.8581 15.5866 19.371 15.6659 19.8838C15.8246 20.9096 16.261 21.8959 16.6577 22.6849C17.0544 23.474 17.4114 24.1052 17.6495 24.5392C17.8875 24.9731 18.0462 25.2099 18.0462 25.2099L17.7685 25.92Z" fill="black"/>

</svg>
